<svg width="266" height="67" fill="none" xmlns="http://www.w3.org/2000/svg"><path fill-rule="evenodd" clip-rule="evenodd" d="M65 51.65h5.374V11.868h13.73v-4.42H65V51.65zm28.044-2.325c.782-1.333 1.507-2.852 1.857-4.377.498-2.12.58-5.921.706-6.41.083-.326.124-9.216.124-26.67l10.478.02v39.975h5.303V7.447H90.748v31.09c-.04 1.68-.459 3.83-.83 5.462-.26 1.143-.251 1.55-.831 2.55-.427.743-1.705 1.554-2.434 1.952-.7.348-1.466.523-2.238.512v2.85c.322.142.658.249 1 .318a8.91 8.91 0 002.533.317 5.428 5.428 0 002.74-.76 6.91 6.91 0 002.356-2.413zm32.75-21.958c-1.258-1.391-1.887-3.752-1.889-7.084 0-3.33.63-5.69 1.888-7.083 1.259-1.391 3.268-2.087 6.029-2.086h4.261v18.341h-4.261c-2.76 0-4.77-.696-6.028-2.088zm-1.889 7.396a13.882 13.882 0 00-1.827 4.806l-1.217 5.375a6.797 6.797 0 01-1.523 3.005 4.403 4.403 0 01-3.349 1.105v2.85c.379.13.766.236 1.157.317a9.03 9.03 0 002.497.316c3.45 0 5.784-2.53 7.002-7.59l1.218-5.375c.527-2.192 1.318-3.688 2.375-4.49a5.533 5.533 0 013.409-1.2h2.436v18.023h5.481V8.269a27.84 27.84 0 00-4.657-.98 42.326 42.326 0 00-5.084-.284 23.001 23.001 0 00-6.212.727 9.18 9.18 0 00-4.14 2.34 9.591 9.591 0 00-2.317 4.142 22.071 22.071 0 00-.73 6.07 15.514 15.514 0 00.73 4.996 12.293 12.293 0 001.888 3.637 8.627 8.627 0 002.648 2.308 9.45 9.45 0 002.953 1.075v.255a5.283 5.283 0 00-2.738 2.208zm44.342-27.316v19.576h-12.97V7.447h-5.558V51.65h5.558V31.443h12.97V51.65h5.559V7.447h-5.559zm19.362 23.365h13.434v-4.42h-13.434V11.867h15.267v-4.42h-20.764V51.65h20.762v-4.42h-15.265V30.812zM233.542 61h3.388V47.14h-4.003V7.447h-5.545V47.14h-12.317V7.447h-5.544V51.55h22.171a34.856 34.856 0 001.85 9.451zm18.836-31.545c2.761 0 4.77.706 6.028 2.118 1.258 1.413 1.887 3.868 1.888 7.368 0 3.5-.629 5.955-1.888 7.367-1.259 1.411-3.268 2.118-6.028 2.119h-4.26V29.455h4.26zm-4.125-3.925V7.447h-5.509v43.779c1.53.461 3.096.79 4.681.983 1.696.198 3.402.293 5.109.286a22.198 22.198 0 006.241-.762 9.48 9.48 0 004.161-2.38 9.597 9.597 0 002.325-4.218c.528-2.049.776-4.163.735-6.281 0-5.076-.949-8.671-2.846-10.786-1.897-2.115-4.824-3.173-8.781-3.173a30.1 30.1 0 00-3.177.191c-.988.096-1.968.245-2.939.444z" fill="#333"/><path d="M31.69 7C17.204 11.855 4.984 21.752 0 36.5 4.926 51.08 17.032 61.087 31.69 66c13.036-9.986 20.144-18.006 25.373-29.5-7.505-5.007-10.658-7.585-16.744-15.334-8.153 3.763-15.25 8.148-21.537 15.174 2.256 3.193 6.002 6.174 9.03 8.623 4.414-3.223 7.78-6.363 9.96-9.058 1.367 1.66 2.909 2.764 4.377 3.688-3.792 6.41-8.048 9.93-13.304 13.292-7.894-4.153-14.239-11.34-17.323-17.417 5.78-9.47 14.847-15.864 25.149-19.428C35 13.136 32.814 10.43 31.69 7z" fill="#FFE30B"/><path d="M67.756 64.144c1.524 0 2.58-1.176 2.58-3.048 0-1.884-1.056-3.036-2.58-3.036-.816 0-1.536.42-1.956 1.008v-.864h-.9v8.004h.9v-3.084c.468.648 1.164 1.02 1.956 1.02zm-.228-.804c-.708 0-1.416-.432-1.728-.936v-2.616c.312-.504 1.02-.924 1.728-.924 1.164 0 1.86.948 1.86 2.232 0 1.284-.696 2.244-1.86 2.244zm6.772.804c1.763 0 2.867-1.368 2.867-3.048S76.063 58.06 74.3 58.06c-1.764 0-2.868 1.356-2.868 3.036s1.104 3.048 2.868 3.048zm0-.804c-1.237 0-1.933-1.056-1.933-2.244 0-1.176.696-2.232 1.932-2.232s1.92 1.056 1.92 2.232c0 1.188-.684 2.244-1.92 2.244zm6.386.804c1.668 0 2.652-.72 2.652-1.692 0-.96-1.008-1.368-1.68-1.416.684-.084 1.56-.552 1.56-1.416 0-.984-1.104-1.56-2.664-1.548-1.056 0-1.836.372-2.376.924l.468.552c.492-.504 1.128-.744 1.944-.744.96 0 1.692.372 1.692.924 0 .66-.756.972-1.716.972H79.27v.732h1.296c1.02 0 1.824.24 1.824.96 0 .612-.672 1.008-1.704 1.008-.864 0-1.632-.264-2.172-.78l-.444.576c.576.576 1.452.948 2.616.948zm6.968 0c1.525 0 2.58-1.176 2.58-3.048 0-1.884-1.055-3.036-2.58-3.036-.816 0-1.535.42-1.956 1.008v-.864h-.9v8.004h.9v-3.084c.469.648 1.165 1.02 1.957 1.02zm-.227-.804c-.709 0-1.417-.432-1.729-.936v-2.616c.313-.504 1.02-.924 1.729-.924 1.163 0 1.86.948 1.86 2.232 0 1.284-.697 2.244-1.86 2.244zm6.771.804c1.764 0 2.868-1.368 2.868-3.048s-1.104-3.036-2.868-3.036c-1.764 0-2.868 1.356-2.868 3.036s1.104 3.048 2.868 3.048zm0-.804c-1.236 0-1.932-1.056-1.932-2.244 0-1.176.696-2.232 1.932-2.232s1.92 1.056 1.92 2.232c0 1.188-.684 2.244-1.92 2.244zm6.867 0c-1.236 0-1.932-1.056-1.932-2.256 0-1.164.696-2.22 1.932-2.22s1.92 1.056 1.92 2.22c0 1.2-.684 2.256-1.92 2.256zm0 .804c1.788 0 2.856-1.392 2.856-3.06 0-1.644-1.068-3.024-2.712-3.024-1.032 0-1.764.576-2.184 1.236.204-.984.72-1.728 2.436-1.968.984-.132 2.28-.384 2.28-1.332h-.876c0 .24-.36.396-1.632.588-2.016.264-3.036 1.428-3.036 4.248 0 1.92 1.092 3.312 2.868 3.312zm9.494-.144l-2.58-3.168 2.568-2.628h-1.14l-3.048 3.084v-3.084h-.9V64h.9v-1.656l.96-.948L109.407 64h1.152zm5.588 0v-3.984c0-1.404-1.02-1.956-2.244-1.956-.948 0-1.692.312-2.316.96l.42.624c.516-.552 1.08-.804 1.776-.804.84 0 1.464.444 1.464 1.224v1.044c-.468-.54-1.128-.792-1.92-.792-.984 0-2.028.612-2.028 1.908 0 1.26 1.044 1.92 2.028 1.92.78 0 1.44-.276 1.92-.804V64h.9zm-2.496-.504c-.84 0-1.428-.528-1.428-1.26 0-.744.588-1.272 1.428-1.272.636 0 1.248.24 1.596.72v1.092c-.348.48-.96.72-1.596.72zm9.35.504v-5.004h1.692v-.792h-4.272v.792h1.68V64h.9zm7.396 0v-3.984c0-1.404-1.02-1.956-2.244-1.956-.948 0-1.692.312-2.316.96l.42.624c.516-.552 1.08-.804 1.776-.804.84 0 1.464.444 1.464 1.224v1.044c-.468-.54-1.128-.792-1.92-.792-.984 0-2.028.612-2.028 1.908 0 1.26 1.044 1.92 2.028 1.92.78 0 1.44-.276 1.92-.804V64h.9zm-2.496-.504c-.84 0-1.428-.528-1.428-1.26 0-.744.588-1.272 1.428-1.272.636 0 1.248.24 1.596.72v1.092c-.348.48-.96.72-1.596.72zm12.218.504v-5.796h-4.824V64h.9v-5.004h3.024V64h.9zm2.241-6.624a.604.604 0 00.612-.6.615.615 0 00-.612-.612c-.324 0-.6.276-.6.612 0 .336.276.6.6.6zm.456 6.624v-5.796h-.9V64h.9zm1.111 1.476h.9V64h4.38v1.476h.9v-2.268h-.672v-5.004h-4.032l-.372 2.856c-.228 1.716-.564 2.1-1.104 2.196v2.22zm2.268-6.48h2.34v4.212h-3.444c.42-.336.696-.948.84-2.04l.264-2.172zM153.294 64v-5.004h1.692v-.792h-4.272v.792h1.68V64h.9zm5.728.144c1.524 0 2.58-1.176 2.58-3.048 0-1.884-1.056-3.036-2.58-3.036-.816 0-1.536.42-1.956 1.008v-.864h-.9v8.004h.9v-3.084c.468.648 1.164 1.02 1.956 1.02zm-.228-.804c-.708 0-1.416-.432-1.728-.936v-2.616c.312-.504 1.02-.924 1.728-.924 1.164 0 1.86.948 1.86 2.232 0 1.284-.696 2.244-1.86 2.244zm5.103.66l3.06-4.512V64h.9v-5.796h-.888l-3.036 4.428v-4.428h-.9V64h.864zm11.673 0v-5.796h-1.2l-1.752 4.296-1.776-4.296h-1.188V64h.9v-4.548L172.45 64h.336l1.884-4.548V64h.9zm6.895 0l-2.58-3.168 2.568-2.628h-1.14l-3.048 3.084v-3.084h-.9V64h.9v-1.656l.96-.948L181.313 64h1.152zm5.588 0v-3.984c0-1.404-1.02-1.956-2.244-1.956-.948 0-1.692.312-2.316.96l.42.624c.516-.552 1.08-.804 1.776-.804.84 0 1.464.444 1.464 1.224v1.044c-.468-.54-1.128-.792-1.92-.792-.984 0-2.028.612-2.028 1.908 0 1.26 1.044 1.92 2.028 1.92.78 0 1.44-.276 1.92-.804V64h.9zm-2.496-.504c-.84 0-1.428-.528-1.428-1.26 0-.744.588-1.272 1.428-1.272.636 0 1.248.24 1.596.72v1.092c-.348.48-.96.72-1.596.72zm9.95.648c1.056 0 1.68-.432 2.124-1.008l-.6-.552c-.384.516-.876.756-1.476.756-1.236 0-2.004-.96-2.004-2.244 0-1.284.768-2.232 2.004-2.232.6 0 1.092.228 1.476.756l.6-.552c-.444-.576-1.068-1.008-2.124-1.008-1.728 0-2.892 1.32-2.892 3.036 0 1.728 1.164 3.048 2.892 3.048zm7.909-.144v-3.984c0-1.404-1.02-1.956-2.244-1.956-.948 0-1.692.312-2.316.96l.42.624c.516-.552 1.08-.804 1.776-.804.84 0 1.464.444 1.464 1.224v1.044c-.468-.54-1.128-.792-1.92-.792-.984 0-2.028.612-2.028 1.908 0 1.26 1.044 1.92 2.028 1.92.78 0 1.44-.276 1.92-.804V64h.9zm-2.496-.504c-.84 0-1.428-.528-1.428-1.26 0-.744.588-1.272 1.428-1.272.636 0 1.248.24 1.596.72v1.092c-.348.48-.96.72-1.596.72zm5.164.504l3.06-4.512V64h.9v-5.796h-.888l-3.036 4.428v-4.428h-.9V64h.864zm3.648-7.512l-.444-.384c-.372.54-.96.864-1.656.864-.708 0-1.284-.336-1.668-.864l-.444.384a2.648 2.648 0 002.112 1.056c.864 0 1.62-.408 2.1-1.056zM213.797 64v-5.004h1.692v-.792h-4.272v.792h1.68V64h.9zm3.317-6.624a.604.604 0 00.612-.6.615.615 0 00-.612-.612c-.324 0-.6.276-.6.612 0 .336.276.6.6.6zM217.57 64v-5.796h-.9V64h.9zm5.047 0c1.068 0 1.692-.636 1.692-1.572 0-.66-.468-1.272-1.056-1.416.492-.156.936-.624.936-1.32 0-.876-.612-1.488-1.632-1.488h-3.192V64h3.252zm-.18-.792h-2.172V61.42h2.172c.612 0 .936.432.936.9 0 .552-.36.888-.936.888zm-.036-2.58h-2.136v-1.632h2.136c.552 0 .864.324.864.828 0 .456-.3.804-.864.804zM253.856 6V.996h1.692V.204h-4.272v.792h1.68V6h.9zm8.788 0V.204h-1.2L259.692 4.5 257.916.204h-1.188V6h.9V1.452L259.524 6h.336l1.884-4.548V6h.9z" fill="#333"/></svg>